<mxfile host="app.diagrams.net" modified="2021-05-31T03:26:10.244Z" agent="5.0 (Macintosh; Intel Mac OS X 10_15_7) AppleWebKit/537.36 (KHTML, like Gecko) Chrome/91.0.4472.77 Safari/537.36" etag="ZQZXL_yQ7yGYq411uiwq" version="14.7.3" type="github">
  <diagram id="C5RBs43oDa-KdzZeNtuy" name="Page-1">
    <mxGraphModel dx="461" dy="489" grid="1" gridSize="10" guides="1" tooltips="1" connect="1" arrows="1" fold="1" page="1" pageScale="1" pageWidth="827" pageHeight="1169" background="#ffffff" math="1" shadow="0">
      <root>
        <mxCell id="WIyWlLk6GJQsqaUBKTNV-0" />
        <mxCell id="WIyWlLk6GJQsqaUBKTNV-1" parent="WIyWlLk6GJQsqaUBKTNV-0" />
        <mxCell id="aRAGEZ5hy6CJlvPZk3Vg-24" style="edgeStyle=orthogonalEdgeStyle;rounded=0;orthogonalLoop=1;jettySize=auto;html=1;exitX=0.167;exitY=1.013;exitDx=0;exitDy=0;entryX=0.5;entryY=0;entryDx=0;entryDy=0;exitPerimeter=0;" edge="1" parent="WIyWlLk6GJQsqaUBKTNV-1" source="aRAGEZ5hy6CJlvPZk3Vg-0" target="aRAGEZ5hy6CJlvPZk3Vg-17">
          <mxGeometry relative="1" as="geometry" />
        </mxCell>
        <mxCell id="aRAGEZ5hy6CJlvPZk3Vg-26" style="edgeStyle=orthogonalEdgeStyle;rounded=0;orthogonalLoop=1;jettySize=auto;html=1;exitX=0.5;exitY=1;exitDx=0;exitDy=0;entryX=0.5;entryY=0;entryDx=0;entryDy=0;" edge="1" parent="WIyWlLk6GJQsqaUBKTNV-1" source="aRAGEZ5hy6CJlvPZk3Vg-0" target="aRAGEZ5hy6CJlvPZk3Vg-18">
          <mxGeometry relative="1" as="geometry" />
        </mxCell>
        <mxCell id="aRAGEZ5hy6CJlvPZk3Vg-0" value="&lt;div&gt;&lt;span&gt;危险情况&lt;/span&gt;&lt;/div&gt;&lt;div&gt;&lt;span&gt;&lt;br&gt;&lt;/span&gt;&lt;/div&gt;&lt;div&gt;&lt;span&gt;&lt;br&gt;&lt;/span&gt;&lt;/div&gt;&lt;div&gt;&lt;br&gt;&lt;/div&gt;" style="rounded=0;whiteSpace=wrap;html=1;align=center;" vertex="1" parent="WIyWlLk6GJQsqaUBKTNV-1">
          <mxGeometry x="210" y="130" width="300" height="80" as="geometry" />
        </mxCell>
        <mxCell id="aRAGEZ5hy6CJlvPZk3Vg-1" value="\(abs(TDTC)\)&lt;br&gt;\(T_{th1}\)" style="rounded=0;whiteSpace=wrap;html=1;strokeColor=none;" vertex="1" parent="WIyWlLk6GJQsqaUBKTNV-1">
          <mxGeometry x="220" y="160" width="80" height="40" as="geometry" />
        </mxCell>
        <mxCell id="aRAGEZ5hy6CJlvPZk3Vg-5" style="edgeStyle=orthogonalEdgeStyle;rounded=0;orthogonalLoop=1;jettySize=auto;html=1;exitX=0.5;exitY=1;exitDx=0;exitDy=0;" edge="1" parent="WIyWlLk6GJQsqaUBKTNV-1">
          <mxGeometry relative="1" as="geometry">
            <mxPoint x="455" y="350" as="sourcePoint" />
            <mxPoint x="455" y="350" as="targetPoint" />
          </mxGeometry>
        </mxCell>
        <mxCell id="aRAGEZ5hy6CJlvPZk3Vg-8" value="\(Var(err_{heading})\)&lt;br&gt;\(&amp;gt; \rho_{th}\)" style="rounded=0;whiteSpace=wrap;html=1;strokeColor=none;" vertex="1" parent="WIyWlLk6GJQsqaUBKTNV-1">
          <mxGeometry x="305" y="160" width="110" height="40" as="geometry" />
        </mxCell>
        <mxCell id="aRAGEZ5hy6CJlvPZk3Vg-11" value="\(T_{v=0}\)&lt;br&gt;\(&amp;gt;T_{th2}\)" style="rounded=0;whiteSpace=wrap;html=1;strokeColor=none;" vertex="1" parent="WIyWlLk6GJQsqaUBKTNV-1">
          <mxGeometry x="420" y="160" width="80" height="40" as="geometry" />
        </mxCell>
        <mxCell id="aRAGEZ5hy6CJlvPZk3Vg-31" style="edgeStyle=orthogonalEdgeStyle;rounded=0;orthogonalLoop=1;jettySize=auto;html=1;exitX=0.5;exitY=1;exitDx=0;exitDy=0;" edge="1" parent="WIyWlLk6GJQsqaUBKTNV-1" source="aRAGEZ5hy6CJlvPZk3Vg-17" target="aRAGEZ5hy6CJlvPZk3Vg-28">
          <mxGeometry relative="1" as="geometry" />
        </mxCell>
        <mxCell id="aRAGEZ5hy6CJlvPZk3Vg-17" value="危险" style="rounded=0;whiteSpace=wrap;html=1;" vertex="1" parent="WIyWlLk6GJQsqaUBKTNV-1">
          <mxGeometry x="220" y="250" width="80" height="40" as="geometry" />
        </mxCell>
        <mxCell id="aRAGEZ5hy6CJlvPZk3Vg-32" style="edgeStyle=orthogonalEdgeStyle;rounded=0;orthogonalLoop=1;jettySize=auto;html=1;exitX=0.5;exitY=1;exitDx=0;exitDy=0;entryX=0.5;entryY=0;entryDx=0;entryDy=0;" edge="1" parent="WIyWlLk6GJQsqaUBKTNV-1" source="aRAGEZ5hy6CJlvPZk3Vg-18" target="aRAGEZ5hy6CJlvPZk3Vg-29">
          <mxGeometry relative="1" as="geometry" />
        </mxCell>
        <mxCell id="aRAGEZ5hy6CJlvPZk3Vg-18" value="弯道" style="rounded=0;whiteSpace=wrap;html=1;" vertex="1" parent="WIyWlLk6GJQsqaUBKTNV-1">
          <mxGeometry x="320" y="250" width="80" height="40" as="geometry" />
        </mxCell>
        <mxCell id="aRAGEZ5hy6CJlvPZk3Vg-27" style="edgeStyle=orthogonalEdgeStyle;rounded=0;orthogonalLoop=1;jettySize=auto;html=1;exitX=0.837;exitY=1.025;exitDx=0;exitDy=0;entryX=0.5;entryY=0;entryDx=0;entryDy=0;exitPerimeter=0;" edge="1" parent="WIyWlLk6GJQsqaUBKTNV-1" source="aRAGEZ5hy6CJlvPZk3Vg-0" target="aRAGEZ5hy6CJlvPZk3Vg-19">
          <mxGeometry relative="1" as="geometry" />
        </mxCell>
        <mxCell id="aRAGEZ5hy6CJlvPZk3Vg-33" style="edgeStyle=orthogonalEdgeStyle;rounded=0;orthogonalLoop=1;jettySize=auto;html=1;exitX=0.5;exitY=1;exitDx=0;exitDy=0;entryX=0.5;entryY=0;entryDx=0;entryDy=0;" edge="1" parent="WIyWlLk6GJQsqaUBKTNV-1" source="aRAGEZ5hy6CJlvPZk3Vg-19" target="aRAGEZ5hy6CJlvPZk3Vg-30">
          <mxGeometry relative="1" as="geometry" />
        </mxCell>
        <mxCell id="aRAGEZ5hy6CJlvPZk3Vg-19" value="拥堵情况" style="rounded=0;whiteSpace=wrap;html=1;" vertex="1" parent="WIyWlLk6GJQsqaUBKTNV-1">
          <mxGeometry x="420" y="250" width="80" height="40" as="geometry" />
        </mxCell>
        <mxCell id="aRAGEZ5hy6CJlvPZk3Vg-28" value="限制最大速度" style="rounded=0;whiteSpace=wrap;html=1;" vertex="1" parent="WIyWlLk6GJQsqaUBKTNV-1">
          <mxGeometry x="220" y="340" width="80" height="40" as="geometry" />
        </mxCell>
        <mxCell id="aRAGEZ5hy6CJlvPZk3Vg-29" value="限制最大速度" style="rounded=0;whiteSpace=wrap;html=1;" vertex="1" parent="WIyWlLk6GJQsqaUBKTNV-1">
          <mxGeometry x="320" y="340" width="80" height="40" as="geometry" />
        </mxCell>
        <mxCell id="aRAGEZ5hy6CJlvPZk3Vg-30" value="加速" style="rounded=0;whiteSpace=wrap;html=1;" vertex="1" parent="WIyWlLk6GJQsqaUBKTNV-1">
          <mxGeometry x="420" y="340" width="80" height="40" as="geometry" />
        </mxCell>
      </root>
    </mxGraphModel>
  </diagram>
</mxfile>
